# MagicaVoxel @ Ephtracy

# group
g PongAssets-0

# material
mtllib PongAssets-0.mtl
usemtl palette

# normals
vn -1 0 0
vn 1 0 0
vn 0 0 1
vn 0 0 -1
vn 0 -1 0
vn 0 1 0

# texcoords
vt 0.00976563 0.5
vt 0.0136719 0.5
vt 0.0253906 0.5
vt 0.0566406 0.5

# verts
v -20 0 8
v -20 0 7
v -20 0 6
v -20 30 8
v -20 30 7
v -20 30 6
v -19 1 20
v -19 1 8
v -19 3 20
v -19 3 8
v -19 27 20
v -19 27 8
v -19 29 20
v -19 29 8
v 17 1 20
v 17 1 8
v 17 2 20
v 17 2 18
v 17 2 17
v 17 2 8
v 17 28 20
v 17 28 18
v 17 28 17
v 17 28 8
v 17 29 20
v 17 29 8
v 18 2 20
v 18 2 18
v 18 2 17
v 18 2 8
v 18 3 20
v 18 3 18
v 18 3 17
v 18 3 8
v 18 27 20
v 18 27 18
v 18 27 17
v 18 27 8
v 18 28 20
v 18 28 18
v 18 28 17
v 18 28 8
v 19 1 7
v 19 1 6
v 19 29 7
v 19 29 6
v -19 1 7
v -19 1 6
v -19 29 7
v -19 29 6
v -18 2 20
v -18 2 18
v -18 2 17
v -18 2 8
v -18 3 20
v -18 3 18
v -18 3 17
v -18 3 8
v -18 27 20
v -18 27 18
v -18 27 17
v -18 27 8
v -18 28 20
v -18 28 18
v -18 28 17
v -18 28 8
v -17 1 20
v -17 1 8
v -17 2 20
v -17 2 18
v -17 2 17
v -17 2 8
v -17 28 20
v -17 28 18
v -17 28 17
v -17 28 8
v -17 29 20
v -17 29 8
v 19 1 20
v 19 1 8
v 19 3 20
v 19 3 8
v 19 27 20
v 19 27 8
v 19 29 20
v 19 29 8
v 20 0 8
v 20 0 7
v 20 0 6
v 20 30 8
v 20 30 7
v 20 30 6
v -19 1 20
v -19 3 20
v -19 27 20
v -19 29 20
v -18 2 20
v -18 3 20
v -18 27 20
v -18 28 20
v -17 1 20
v -17 2 20
v -17 28 20
v -17 29 20
v 17 1 20
v 17 2 20
v 17 28 20
v 17 29 20
v 18 2 20
v 18 3 20
v 18 27 20
v 18 28 20
v 19 1 20
v 19 3 20
v 19 27 20
v 19 29 20
v -18 2 18
v -18 3 18
v -18 27 18
v -18 28 18
v -17 2 18
v -17 28 18
v 17 2 18
v 17 28 18
v 18 2 18
v 18 3 18
v 18 27 18
v 18 28 18
v -20 0 8
v -20 30 8
v -19 1 8
v -19 3 8
v -19 27 8
v -19 29 8
v -18 2 8
v -18 3 8
v -18 27 8
v -18 28 8
v -17 1 8
v -17 2 8
v -17 28 8
v -17 29 8
v -1 2 8
v -1 3 8
v -1 4 8
v -1 5 8
v -1 6 8
v -1 7 8
v -1 8 8
v -1 9 8
v -1 10 8
v -1 11 8
v -1 12 8
v -1 13 8
v -1 14 8
v -1 15 8
v -1 16 8
v -1 17 8
v -1 18 8
v -1 19 8
v -1 20 8
v -1 21 8
v -1 22 8
v -1 23 8
v -1 24 8
v -1 25 8
v -1 26 8
v -1 27 8
v 0 2 8
v 0 3 8
v 0 4 8
v 0 5 8
v 0 6 8
v 0 7 8
v 0 8 8
v 0 9 8
v 0 10 8
v 0 11 8
v 0 12 8
v 0 13 8
v 0 14 8
v 0 15 8
v 0 16 8
v 0 17 8
v 0 18 8
v 0 19 8
v 0 20 8
v 0 21 8
v 0 22 8
v 0 23 8
v 0 24 8
v 0 25 8
v 0 26 8
v 0 27 8
v 0 28 8
v 1 3 8
v 1 4 8
v 1 5 8
v 1 6 8
v 1 7 8
v 1 8 8
v 1 9 8
v 1 10 8
v 1 11 8
v 1 12 8
v 1 13 8
v 1 14 8
v 1 15 8
v 1 16 8
v 1 17 8
v 1 18 8
v 1 19 8
v 1 20 8
v 1 21 8
v 1 22 8
v 1 23 8
v 1 24 8
v 1 25 8
v 1 26 8
v 1 27 8
v 1 28 8
v 17 1 8
v 17 2 8
v 17 28 8
v 17 29 8
v 18 2 8
v 18 3 8
v 18 27 8
v 18 28 8
v 19 1 8
v 19 3 8
v 19 27 8
v 19 29 8
v 20 0 8
v 20 30 8
v -18 2 17
v -18 3 17
v -18 27 17
v -18 28 17
v -17 2 17
v -17 28 17
v 17 2 17
v 17 28 17
v 18 2 17
v 18 3 17
v 18 27 17
v 18 28 17
v -19 1 7
v -19 29 7
v -18 2 7
v -18 28 7
v -1 2 7
v -1 3 7
v -1 4 7
v -1 5 7
v -1 6 7
v -1 7 7
v -1 8 7
v -1 9 7
v -1 10 7
v -1 11 7
v -1 12 7
v -1 13 7
v -1 14 7
v -1 15 7
v -1 16 7
v -1 17 7
v -1 18 7
v -1 19 7
v -1 20 7
v -1 21 7
v -1 22 7
v -1 23 7
v -1 24 7
v -1 25 7
v -1 26 7
v -1 27 7
v 0 2 7
v 0 3 7
v 0 4 7
v 0 5 7
v 0 6 7
v 0 7 7
v 0 8 7
v 0 9 7
v 0 10 7
v 0 11 7
v 0 12 7
v 0 13 7
v 0 14 7
v 0 15 7
v 0 16 7
v 0 17 7
v 0 18 7
v 0 19 7
v 0 20 7
v 0 21 7
v 0 22 7
v 0 23 7
v 0 24 7
v 0 25 7
v 0 26 7
v 0 27 7
v 0 28 7
v 1 3 7
v 1 4 7
v 1 5 7
v 1 6 7
v 1 7 7
v 1 8 7
v 1 9 7
v 1 10 7
v 1 11 7
v 1 12 7
v 1 13 7
v 1 14 7
v 1 15 7
v 1 16 7
v 1 17 7
v 1 18 7
v 1 19 7
v 1 20 7
v 1 21 7
v 1 22 7
v 1 23 7
v 1 24 7
v 1 25 7
v 1 26 7
v 1 27 7
v 1 28 7
v 18 2 7
v 18 28 7
v 19 1 7
v 19 29 7
v -20 0 6
v -20 30 6
v -19 1 6
v -19 29 6
v 19 1 6
v 19 29 6
v 20 0 6
v 20 30 6
v -20 0 8
v 20 0 8
v -20 0 7
v 20 0 7
v -20 0 6
v 20 0 6
v -19 1 20
v -17 1 20
v 17 1 20
v 19 1 20
v -19 1 8
v -17 1 8
v 17 1 8
v 19 1 8
v -17 2 18
v 17 2 18
v -17 2 17
v 17 2 17
v -19 27 20
v -18 27 20
v 18 27 20
v 19 27 20
v -18 27 18
v 18 27 18
v -18 27 17
v 18 27 17
v -19 27 8
v -18 27 8
v 18 27 8
v 19 27 8
v -18 28 20
v -17 28 20
v 17 28 20
v 18 28 20
v -18 28 18
v -17 28 18
v 17 28 18
v 18 28 18
v -18 28 17
v -17 28 17
v 17 28 17
v 18 28 17
v -18 28 8
v -17 28 8
v 17 28 8
v 18 28 8
v -19 29 7
v 19 29 7
v -19 29 6
v 19 29 6
v -19 1 7
v 19 1 7
v -19 1 6
v 19 1 6
v -18 2 20
v -17 2 20
v 17 2 20
v 18 2 20
v -18 2 18
v -17 2 18
v 17 2 18
v 18 2 18
v -18 2 17
v -17 2 17
v 17 2 17
v 18 2 17
v -18 2 8
v -17 2 8
v 17 2 8
v 18 2 8
v -19 3 20
v -18 3 20
v 18 3 20
v 19 3 20
v -18 3 18
v 18 3 18
v -18 3 17
v 18 3 17
v -19 3 8
v -18 3 8
v 18 3 8
v 19 3 8
v -17 28 18
v 17 28 18
v -17 28 17
v 17 28 17
v -19 29 20
v -17 29 20
v 17 29 20
v 19 29 20
v -19 29 8
v -17 29 8
v 17 29 8
v 19 29 8
v -20 30 8
v 20 30 8
v -20 30 7
v 20 30 7
v -20 30 6
v 20 30 6

# faces
f 4/4/1 2/4/1 1/4/1
f 5/1/1 3/1/1 2/1/1
f 5/4/1 2/4/1 4/4/1
f 6/1/1 3/1/1 5/1/1
f 9/3/1 8/3/1 7/3/1
f 10/3/1 8/3/1 9/3/1
f 13/3/1 12/3/1 11/3/1
f 14/3/1 12/3/1 13/3/1
f 17/3/1 16/3/1 15/3/1
f 18/3/1 16/3/1 17/3/1
f 19/3/1 16/3/1 18/3/1
f 20/3/1 16/3/1 19/3/1
f 25/3/1 22/3/1 21/3/1
f 25/3/1 24/3/1 23/3/1
f 25/3/1 23/3/1 22/3/1
f 26/3/1 24/3/1 25/3/1
f 31/3/1 28/3/1 27/3/1
f 32/3/1 28/3/1 31/3/1
f 33/3/1 30/3/1 29/3/1
f 34/3/1 30/3/1 33/3/1
f 39/3/1 36/3/1 35/3/1
f 40/3/1 36/3/1 39/3/1
f 41/3/1 38/3/1 37/3/1
f 42/3/1 38/3/1 41/3/1
f 45/1/1 44/1/1 43/1/1
f 46/1/1 44/1/1 45/1/1
f 47/1/2 48/1/2 49/1/2
f 49/1/2 48/1/2 50/1/2
f 51/3/2 52/3/2 55/3/2
f 55/3/2 52/3/2 56/3/2
f 53/3/2 54/3/2 57/3/2
f 57/3/2 54/3/2 58/3/2
f 59/3/2 60/3/2 63/3/2
f 63/3/2 60/3/2 64/3/2
f 61/3/2 62/3/2 65/3/2
f 65/3/2 62/3/2 66/3/2
f 67/3/2 68/3/2 69/3/2
f 69/3/2 68/3/2 70/3/2
f 70/3/2 68/3/2 71/3/2
f 71/3/2 68/3/2 72/3/2
f 73/3/2 74/3/2 77/3/2
f 75/3/2 76/3/2 77/3/2
f 74/3/2 75/3/2 77/3/2
f 77/3/2 76/3/2 78/3/2
f 79/3/2 80/3/2 81/3/2
f 81/3/2 80/3/2 82/3/2
f 83/3/2 84/3/2 85/3/2
f 85/3/2 84/3/2 86/3/2
f 87/4/2 88/4/2 90/4/2
f 88/1/2 89/1/2 91/1/2
f 90/4/2 88/4/2 91/4/2
f 91/1/2 89/1/2 92/1/2
f 97/3/3 94/3/3 93/3/3
f 98/3/3 94/3/3 97/3/3
f 99/3/3 96/3/3 95/3/3
f 100/3/3 96/3/3 99/3/3
f 101/3/3 97/3/3 93/3/3
f 102/3/3 97/3/3 101/3/3
f 103/3/3 96/3/3 100/3/3
f 104/3/3 96/3/3 103/3/3
f 109/3/3 106/3/3 105/3/3
f 112/3/3 108/3/3 107/3/3
f 113/3/3 110/3/3 109/3/3
f 113/3/3 109/3/3 105/3/3
f 114/3/3 110/3/3 113/3/3
f 115/3/3 112/3/3 111/3/3
f 116/3/3 108/3/3 112/3/3
f 116/3/3 112/3/3 115/3/3
f 121/3/3 118/3/3 117/3/3
f 122/3/3 120/3/3 119/3/3
f 123/3/3 118/3/3 121/3/3
f 124/3/3 122/3/3 119/3/3
f 125/3/3 118/3/3 123/3/3
f 126/3/3 118/3/3 125/3/3
f 127/3/3 124/3/3 119/3/3
f 128/3/3 124/3/3 127/3/3
f 131/4/3 130/4/3 129/4/3
f 132/4/3 130/4/3 131/4/3
f 133/4/3 130/4/3 132/4/3
f 134/4/3 130/4/3 133/4/3
f 136/2/3 133/2/3 132/2/3
f 137/2/3 133/2/3 136/2/3
f 139/4/3 131/4/3 129/4/3
f 140/4/3 138/4/3 137/4/3
f 140/4/3 136/4/3 135/4/3
f 140/4/3 137/4/3 136/4/3
f 141/4/3 138/4/3 140/4/3
f 142/4/3 130/4/3 134/4/3
f 143/4/3 141/4/3 140/4/3
f 143/2/3 140/2/3 139/2/3
f 144/4/3 141/4/3 143/4/3
f 145/4/3 141/4/3 144/4/3
f 146/4/3 141/4/3 145/4/3
f 147/4/3 141/4/3 146/4/3
f 148/4/3 141/4/3 147/4/3
f 149/4/3 141/4/3 148/4/3
f 150/4/3 141/4/3 149/4/3
f 151/4/3 141/4/3 150/4/3
f 152/4/3 141/4/3 151/4/3
f 153/4/3 141/4/3 152/4/3
f 154/4/3 141/4/3 153/4/3
f 155/4/3 141/4/3 154/4/3
f 156/4/3 141/4/3 155/4/3
f 157/4/3 141/4/3 156/4/3
f 158/4/3 141/4/3 157/4/3
f 159/4/3 141/4/3 158/4/3
f 160/4/3 141/4/3 159/4/3
f 161/4/3 141/4/3 160/4/3
f 162/4/3 141/4/3 161/4/3
f 163/4/3 141/4/3 162/4/3
f 164/4/3 141/4/3 163/4/3
f 165/4/3 141/4/3 164/4/3
f 166/4/3 141/4/3 165/4/3
f 167/4/3 141/4/3 166/4/3
f 168/4/3 141/4/3 167/4/3
f 169/2/3 143/2/3 139/2/3
f 169/2/3 144/2/3 143/2/3
f 170/4/3 145/4/3 144/4/3
f 170/2/3 144/2/3 169/2/3
f 171/2/3 146/2/3 145/2/3
f 171/4/3 145/4/3 170/4/3
f 172/4/3 147/4/3 146/4/3
f 172/2/3 146/2/3 171/2/3
f 173/2/3 148/2/3 147/2/3
f 173/4/3 147/4/3 172/4/3
f 174/4/3 149/4/3 148/4/3
f 174/2/3 148/2/3 173/2/3
f 175/2/3 150/2/3 149/2/3
f 175/4/3 149/4/3 174/4/3
f 176/4/3 151/4/3 150/4/3
f 176/2/3 150/2/3 175/2/3
f 177/2/3 152/2/3 151/2/3
f 177/4/3 151/4/3 176/4/3
f 178/4/3 153/4/3 152/4/3
f 178/2/3 152/2/3 177/2/3
f 179/2/3 154/2/3 153/2/3
f 179/4/3 153/4/3 178/4/3
f 180/4/3 155/4/3 154/4/3
f 180/2/3 154/2/3 179/2/3
f 181/2/3 156/2/3 155/2/3
f 181/4/3 155/4/3 180/4/3
f 182/4/3 157/4/3 156/4/3
f 182/2/3 156/2/3 181/2/3
f 183/2/3 158/2/3 157/2/3
f 183/4/3 157/4/3 182/4/3
f 184/4/3 159/4/3 158/4/3
f 184/2/3 158/2/3 183/2/3
f 185/2/3 160/2/3 159/2/3
f 185/4/3 159/4/3 184/4/3
f 186/4/3 161/4/3 160/4/3
f 186/2/3 160/2/3 185/2/3
f 187/2/3 162/2/3 161/2/3
f 187/4/3 161/4/3 186/4/3
f 188/4/3 163/4/3 162/4/3
f 188/2/3 162/2/3 187/2/3
f 189/2/3 164/2/3 163/2/3
f 189/4/3 163/4/3 188/4/3
f 190/4/3 165/4/3 164/4/3
f 190/2/3 164/2/3 189/2/3
f 191/2/3 166/2/3 165/2/3
f 191/4/3 165/4/3 190/4/3
f 192/4/3 167/4/3 166/4/3
f 192/2/3 166/2/3 191/2/3
f 193/2/3 168/2/3 167/2/3
f 193/4/3 167/4/3 192/4/3
f 194/4/3 141/4/3 168/4/3
f 194/2/3 168/2/3 193/2/3
f 195/2/3 142/2/3 141/2/3
f 195/4/3 141/4/3 194/4/3
f 196/4/3 170/4/3 169/4/3
f 196/2/3 171/2/3 170/2/3
f 197/4/3 172/4/3 171/4/3
f 197/2/3 171/2/3 196/2/3
f 198/2/3 173/2/3 172/2/3
f 198/4/3 172/4/3 197/4/3
f 199/4/3 174/4/3 173/4/3
f 199/2/3 173/2/3 198/2/3
f 200/2/3 175/2/3 174/2/3
f 200/4/3 174/4/3 199/4/3
f 201/4/3 176/4/3 175/4/3
f 201/2/3 175/2/3 200/2/3
f 202/2/3 177/2/3 176/2/3
f 202/4/3 176/4/3 201/4/3
f 203/4/3 178/4/3 177/4/3
f 203/2/3 177/2/3 202/2/3
f 204/2/3 179/2/3 178/2/3
f 204/4/3 178/4/3 203/4/3
f 205/4/3 180/4/3 179/4/3
f 205/2/3 179/2/3 204/2/3
f 206/2/3 181/2/3 180/2/3
f 206/4/3 180/4/3 205/4/3
f 207/4/3 182/4/3 181/4/3
f 207/2/3 181/2/3 206/2/3
f 208/2/3 183/2/3 182/2/3
f 208/4/3 182/4/3 207/4/3
f 209/4/3 184/4/3 183/4/3
f 209/2/3 183/2/3 208/2/3
f 210/2/3 185/2/3 184/2/3
f 210/4/3 184/4/3 209/4/3
f 211/4/3 186/4/3 185/4/3
f 211/2/3 185/2/3 210/2/3
f 212/2/3 187/2/3 186/2/3
f 212/4/3 186/4/3 211/4/3
f 213/4/3 188/4/3 187/4/3
f 213/2/3 187/2/3 212/2/3
f 214/2/3 189/2/3 188/2/3
f 214/4/3 188/4/3 213/4/3
f 215/4/3 190/4/3 189/4/3
f 215/2/3 189/2/3 214/2/3
f 216/2/3 191/2/3 190/2/3
f 216/4/3 190/4/3 215/4/3
f 217/4/3 192/4/3 191/4/3
f 217/2/3 191/2/3 216/2/3
f 218/2/3 193/2/3 192/2/3
f 218/4/3 192/4/3 217/4/3
f 219/4/3 194/4/3 193/4/3
f 219/2/3 193/2/3 218/2/3
f 220/2/3 195/2/3 194/2/3
f 220/4/3 194/4/3 219/4/3
f 221/2/3 142/2/3 195/2/3
f 221/2/3 195/2/3 220/2/3
f 222/4/3 139/4/3 129/4/3
f 222/2/3 169/2/3 139/2/3
f 223/4/3 218/4/3 217/4/3
f 223/2/3 169/2/3 222/2/3
f 223/4/3 217/4/3 216/4/3
f 223/4/3 215/4/3 214/4/3
f 223/4/3 214/4/3 213/4/3
f 223/4/3 213/4/3 212/4/3
f 223/4/3 212/4/3 211/4/3
f 223/4/3 211/4/3 210/4/3
f 223/4/3 210/4/3 209/4/3
f 223/4/3 209/4/3 208/4/3
f 223/4/3 208/4/3 207/4/3
f 223/4/3 207/4/3 206/4/3
f 223/4/3 206/4/3 205/4/3
f 223/4/3 205/4/3 204/4/3
f 223/4/3 204/4/3 203/4/3
f 223/4/3 203/4/3 202/4/3
f 223/4/3 202/4/3 201/4/3
f 223/4/3 201/4/3 200/4/3
f 223/4/3 200/4/3 199/4/3
f 223/4/3 199/4/3 198/4/3
f 223/4/3 198/4/3 197/4/3
f 223/4/3 197/4/3 196/4/3
f 223/4/3 196/4/3 169/4/3
f 223/4/3 219/4/3 218/4/3
f 223/4/3 220/4/3 219/4/3
f 223/4/3 221/4/3 220/4/3
f 223/4/3 216/4/3 215/4/3
f 224/2/3 142/2/3 221/2/3
f 224/4/3 221/4/3 223/4/3
f 225/4/3 130/4/3 142/4/3
f 225/2/3 142/2/3 224/2/3
f 226/4/3 224/4/3 223/4/3
f 227/4/3 224/4/3 226/4/3
f 228/4/3 224/4/3 227/4/3
f 229/4/3 224/4/3 228/4/3
f 230/4/3 222/4/3 129/4/3
f 231/2/3 228/2/3 227/2/3
f 232/2/3 228/2/3 231/2/3
f 233/4/3 130/4/3 225/4/3
f 234/4/3 232/4/3 231/4/3
f 234/4/3 233/4/3 232/4/3
f 234/4/3 231/4/3 230/4/3
f 234/4/3 230/4/3 129/4/3
f 235/4/3 130/4/3 233/4/3
f 235/4/3 233/4/3 234/4/3
f 236/3/4 237/3/4 240/3/4
f 238/3/4 239/3/4 241/3/4
f 240/3/4 237/3/4 242/3/4
f 238/3/4 241/3/4 243/3/4
f 242/3/4 237/3/4 244/3/4
f 244/3/4 237/3/4 245/3/4
f 238/3/4 243/3/4 246/3/4
f 246/3/4 243/3/4 247/3/4
f 248/2/4 249/2/4 250/2/4
f 250/2/4 249/2/4 251/2/4
f 248/2/4 250/2/4 252/2/4
f 250/4/4 251/4/4 252/4/4
f 252/4/4 251/4/4 253/4/4
f 253/4/4 251/4/4 254/4/4
f 254/4/4 251/4/4 255/4/4
f 255/4/4 251/4/4 256/4/4
f 256/4/4 251/4/4 257/4/4
f 257/4/4 251/4/4 258/4/4
f 258/4/4 251/4/4 259/4/4
f 259/4/4 251/4/4 260/4/4
f 260/4/4 251/4/4 261/4/4
f 261/4/4 251/4/4 262/4/4
f 262/4/4 251/4/4 263/4/4
f 263/4/4 251/4/4 264/4/4
f 264/4/4 251/4/4 265/4/4
f 265/4/4 251/4/4 266/4/4
f 266/4/4 251/4/4 267/4/4
f 267/4/4 251/4/4 268/4/4
f 268/4/4 251/4/4 269/4/4
f 269/4/4 251/4/4 270/4/4
f 270/4/4 251/4/4 271/4/4
f 271/4/4 251/4/4 272/4/4
f 272/4/4 251/4/4 273/4/4
f 273/4/4 251/4/4 274/4/4
f 274/4/4 251/4/4 275/4/4
f 275/4/4 251/4/4 276/4/4
f 276/4/4 251/4/4 277/4/4
f 248/2/4 252/2/4 278/2/4
f 252/2/4 253/2/4 278/2/4
f 253/4/4 254/4/4 279/4/4
f 278/2/4 253/2/4 279/2/4
f 254/2/4 255/2/4 280/2/4
f 279/4/4 254/4/4 280/4/4
f 255/4/4 256/4/4 281/4/4
f 280/2/4 255/2/4 281/2/4
f 256/2/4 257/2/4 282/2/4
f 281/4/4 256/4/4 282/4/4
f 257/4/4 258/4/4 283/4/4
f 282/2/4 257/2/4 283/2/4
f 258/2/4 259/2/4 284/2/4
f 283/4/4 258/4/4 284/4/4
f 259/4/4 260/4/4 285/4/4
f 284/2/4 259/2/4 285/2/4
f 260/2/4 261/2/4 286/2/4
f 285/4/4 260/4/4 286/4/4
f 261/4/4 262/4/4 287/4/4
f 286/2/4 261/2/4 287/2/4
f 262/2/4 263/2/4 288/2/4
f 287/4/4 262/4/4 288/4/4
f 263/4/4 264/4/4 289/4/4
f 288/2/4 263/2/4 289/2/4
f 264/2/4 265/2/4 290/2/4
f 289/4/4 264/4/4 290/4/4
f 265/4/4 266/4/4 291/4/4
f 290/2/4 265/2/4 291/2/4
f 266/2/4 267/2/4 292/2/4
f 291/4/4 266/4/4 292/4/4
f 267/4/4 268/4/4 293/4/4
f 292/2/4 267/2/4 293/2/4
f 268/2/4 269/2/4 294/2/4
f 293/4/4 268/4/4 294/4/4
f 269/4/4 270/4/4 295/4/4
f 294/2/4 269/2/4 295/2/4
f 270/2/4 271/2/4 296/2/4
f 295/4/4 270/4/4 296/4/4
f 271/4/4 272/4/4 297/4/4
f 296/2/4 271/2/4 297/2/4
f 272/2/4 273/2/4 298/2/4
f 297/4/4 272/4/4 298/4/4
f 273/4/4 274/4/4 299/4/4
f 298/2/4 273/2/4 299/2/4
f 274/2/4 275/2/4 300/2/4
f 299/4/4 274/4/4 300/4/4
f 275/4/4 276/4/4 301/4/4
f 300/2/4 275/2/4 301/2/4
f 276/2/4 277/2/4 302/2/4
f 301/4/4 276/4/4 302/4/4
f 277/4/4 251/4/4 303/4/4
f 302/2/4 277/2/4 303/2/4
f 251/2/4 249/2/4 304/2/4
f 303/4/4 251/4/4 304/4/4
f 278/4/4 279/4/4 305/4/4
f 279/2/4 280/2/4 305/2/4
f 280/4/4 281/4/4 306/4/4
f 305/2/4 280/2/4 306/2/4
f 281/2/4 282/2/4 307/2/4
f 306/4/4 281/4/4 307/4/4
f 282/4/4 283/4/4 308/4/4
f 307/2/4 282/2/4 308/2/4
f 283/2/4 284/2/4 309/2/4
f 308/4/4 283/4/4 309/4/4
f 284/4/4 285/4/4 310/4/4
f 309/2/4 284/2/4 310/2/4
f 285/2/4 286/2/4 311/2/4
f 310/4/4 285/4/4 311/4/4
f 286/4/4 287/4/4 312/4/4
f 311/2/4 286/2/4 312/2/4
f 287/2/4 288/2/4 313/2/4
f 312/4/4 287/4/4 313/4/4
f 288/4/4 289/4/4 314/4/4
f 313/2/4 288/2/4 314/2/4
f 289/2/4 290/2/4 315/2/4
f 314/4/4 289/4/4 315/4/4
f 290/4/4 291/4/4 316/4/4
f 315/2/4 290/2/4 316/2/4
f 291/2/4 292/2/4 317/2/4
f 316/4/4 291/4/4 317/4/4
f 292/4/4 293/4/4 318/4/4
f 317/2/4 292/2/4 318/2/4
f 293/2/4 294/2/4 319/2/4
f 318/4/4 293/4/4 319/4/4
f 294/4/4 295/4/4 320/4/4
f 319/2/4 294/2/4 320/2/4
f 295/2/4 296/2/4 321/2/4
f 320/4/4 295/4/4 321/4/4
f 296/4/4 297/4/4 322/4/4
f 321/2/4 296/2/4 322/2/4
f 297/2/4 298/2/4 323/2/4
f 322/4/4 297/4/4 323/4/4
f 298/4/4 299/4/4 324/4/4
f 323/2/4 298/2/4 324/2/4
f 299/2/4 300/2/4 325/2/4
f 324/4/4 299/4/4 325/4/4
f 300/4/4 301/4/4 326/4/4
f 325/2/4 300/2/4 326/2/4
f 301/2/4 302/2/4 327/2/4
f 326/4/4 301/4/4 327/4/4
f 302/4/4 303/4/4 328/4/4
f 327/2/4 302/2/4 328/2/4
f 303/2/4 304/2/4 329/2/4
f 328/4/4 303/4/4 329/4/4
f 304/2/4 249/2/4 330/2/4
f 329/2/4 304/2/4 330/2/4
f 326/4/4 327/4/4 331/4/4
f 325/4/4 326/4/4 331/4/4
f 329/4/4 330/4/4 331/4/4
f 323/4/4 324/4/4 331/4/4
f 322/4/4 323/4/4 331/4/4
f 321/4/4 322/4/4 331/4/4
f 320/4/4 321/4/4 331/4/4
f 319/4/4 320/4/4 331/4/4
f 318/4/4 319/4/4 331/4/4
f 317/4/4 318/4/4 331/4/4
f 316/4/4 317/4/4 331/4/4
f 315/4/4 316/4/4 331/4/4
f 314/4/4 315/4/4 331/4/4
f 313/4/4 314/4/4 331/4/4
f 312/4/4 313/4/4 331/4/4
f 311/4/4 312/4/4 331/4/4
f 310/4/4 311/4/4 331/4/4
f 309/4/4 310/4/4 331/4/4
f 308/4/4 309/4/4 331/4/4
f 307/4/4 308/4/4 331/4/4
f 306/4/4 307/4/4 331/4/4
f 305/4/4 306/4/4 331/4/4
f 278/4/4 305/4/4 331/4/4
f 327/4/4 328/4/4 331/4/4
f 328/4/4 329/4/4 331/4/4
f 248/2/4 278/2/4 331/2/4
f 324/4/4 325/4/4 331/4/4
f 330/2/4 249/2/4 332/2/4
f 331/4/4 330/4/4 332/4/4
f 248/2/4 331/2/4 333/2/4
f 331/2/4 332/2/4 333/2/4
f 332/2/4 249/2/4 334/2/4
f 333/2/4 332/2/4 334/2/4
f 335/1/4 336/1/4 337/1/4
f 337/1/4 336/1/4 338/1/4
f 335/1/4 337/1/4 339/1/4
f 338/1/4 336/1/4 340/1/4
f 335/1/4 339/1/4 341/1/4
f 339/1/4 340/1/4 341/1/4
f 340/1/4 336/1/4 342/1/4
f 341/1/4 340/1/4 342/1/4
f 345/4/5 344/4/5 343/4/5
f 346/4/5 344/4/5 345/4/5
f 347/1/5 346/1/5 345/1/5
f 348/1/5 346/1/5 347/1/5
f 353/3/5 350/3/5 349/3/5
f 354/3/5 350/3/5 353/3/5
f 355/3/5 352/3/5 351/3/5
f 356/3/5 352/3/5 355/3/5
f 359/3/5 358/3/5 357/3/5
f 360/3/5 358/3/5 359/3/5
f 365/3/5 362/3/5 361/3/5
f 366/3/5 364/3/5 363/3/5
f 367/3/5 365/3/5 361/3/5
f 367/3/5 366/3/5 365/3/5
f 368/3/5 364/3/5 366/3/5
f 368/3/5 366/3/5 367/3/5
f 369/3/5 367/3/5 361/3/5
f 370/3/5 367/3/5 369/3/5
f 371/3/5 364/3/5 368/3/5
f 372/3/5 364/3/5 371/3/5
f 377/3/5 374/3/5 373/3/5
f 378/3/5 374/3/5 377/3/5
f 379/3/5 376/3/5 375/3/5
f 380/3/5 376/3/5 379/3/5
f 385/3/5 382/3/5 381/3/5
f 386/3/5 382/3/5 385/3/5
f 387/3/5 384/3/5 383/3/5
f 388/3/5 384/3/5 387/3/5
f 391/1/5 390/1/5 389/1/5
f 392/1/5 390/1/5 391/1/5
f 393/1/6 394/1/6 395/1/6
f 395/1/6 394/1/6 396/1/6
f 397/3/6 398/3/6 401/3/6
f 401/3/6 398/3/6 402/3/6
f 399/3/6 400/3/6 403/3/6
f 403/3/6 400/3/6 404/3/6
f 405/3/6 406/3/6 409/3/6
f 409/3/6 406/3/6 410/3/6
f 407/3/6 408/3/6 411/3/6
f 411/3/6 408/3/6 412/3/6
f 413/3/6 414/3/6 417/3/6
f 415/3/6 416/3/6 418/3/6
f 413/3/6 417/3/6 419/3/6
f 417/3/6 418/3/6 419/3/6
f 418/3/6 416/3/6 420/3/6
f 419/3/6 418/3/6 420/3/6
f 413/3/6 419/3/6 421/3/6
f 421/3/6 419/3/6 422/3/6
f 420/3/6 416/3/6 423/3/6
f 423/3/6 416/3/6 424/3/6
f 425/3/6 426/3/6 427/3/6
f 427/3/6 426/3/6 428/3/6
f 429/3/6 430/3/6 433/3/6
f 433/3/6 430/3/6 434/3/6
f 431/3/6 432/3/6 435/3/6
f 435/3/6 432/3/6 436/3/6
f 437/4/6 438/4/6 439/4/6
f 439/4/6 438/4/6 440/4/6
f 439/1/6 440/1/6 441/1/6
f 441/1/6 440/1/6 442/1/6
